<svg xmlns="http://www.w3.org/2000/svg" width="23" height="25"><path fill-rule="evenodd" d="M18.856 8.461a3.95 3.95 0 0 1-3.169-1.601l-7.788 4.514c.561.415.242.855.242 1.32 0 .976.589.728-.164 1.07l5.669 3.916-.85.849-5.546-3.358c-.727 1.569-1.828 1.492-3.077 1.492a3.968 3.968 0 0 1 0-7.937c1.158 0 2.191.505 3.727 1.494l7.21-4.789c-.173-.302-.222-.613-.222-.938A3.967 3.967 0 0 1 18.856.525c2.624 0 3.968 1.776 3.968 3.968s-1.344 3.968-3.968 3.968ZM4.173 10.313a2.381 2.381 0 0 0-2.381 2.381c0 2.206 1.066 3.056 2.381 3.056 1.315 0 2.381-.85 2.381-3.056a2.381 2.381 0 0 0-2.381-2.381Zm14.683-8.201a2.381 2.381 0 1 0 0 4.762 2.381 2.381 0 0 0 0-4.762Zm0 14.815c2.624 0 3.968 1.777 3.968 3.969 0 2.974-1.344 3.968-3.968 3.968-2.192 0-3.968-.994-3.968-3.968a3.968 3.968 0 0 1 3.968-3.969Zm0 6.35a2.381 2.381 0 1 0 0-4.762 2.381 2.381 0 0 0 0 4.762Z"/></svg>